<?xml version="1.0" encoding="UTF-8" standalone="no"?>
<!-- Created with Inkscape (http://www.inkscape.org/) -->

<svg
   version="1.1"
   id="svg1"
   width="2829.3333"
   height="2829.3333"
   viewBox="0 0 2829.3333 2829.3333"
   sodipodi:docname="17e1367e-4793-43bc-b087-613ac8a095b0.eps"
   xmlns:inkscape="http://www.inkscape.org/namespaces/inkscape"
   xmlns:sodipodi="http://sodipodi.sourceforge.net/DTD/sodipodi-0.dtd"
   xmlns="http://www.w3.org/2000/svg"
   xmlns:svg="http://www.w3.org/2000/svg">
  <defs
     id="defs1" />
  <sodipodi:namedview
     id="namedview1"
     pagecolor="#ffffff"
     bordercolor="#000000"
     borderopacity="0.25"
     inkscape:showpageshadow="2"
     inkscape:pageopacity="0.0"
     inkscape:pagecheckerboard="0"
     inkscape:deskcolor="#d1d1d1">
    <inkscape:page
       x="0"
       y="0"
       inkscape:label="1"
       id="page1"
       width="2829.3333"
       height="2829.3333"
       margin="0"
       bleed="0" />
  </sodipodi:namedview>
  <g
     id="g1"
     inkscape:groupmode="layer"
     inkscape:label="1">
    <g
       id="group-R5">
      <path
         id="path2"
         d="m 11674.3,7137.5 c -145.6,-502.3 -482.6,-929.7 -985.4,-1105.5 -457.4,-159.8 -973.31,-148.2 -1453.82,-79.5 -26.91,310.9 -47.3,622.4 -60.52,934.1 -26.35,620.5 -25.9,1243.4 19.13,1863.1 10.14,139.5 22.57,279.1 37.76,418.6 100.62,-73.4 207.75,-138.9 320.03,-195.7 65.24,-72.6 143.65,-129.4 238.43,-157.8 67.28,-20.1 134.09,-23.2 199.66,-14.5 294.73,-85.8 605.93,-120.8 909.63,-100.2 261.2,17.8 516,71 763.2,150.7 111.4,-559.5 172.4,-1159.7 11.9,-1713.3 z m 4412.3,10373.8 c -15.9,359.1 -148.6,707.1 -366.4,992.1 -108.7,142.2 -236.1,267.5 -380.6,373.3 -108.6,79.6 -248.7,176 -391.1,188.8 -137,344.6 -402.8,643.9 -762.1,686.3 -341.5,40.3 -675.8,-170 -869.7,-454 -193.9,-284 -270.7,-630.8 -319.8,-971.1 -259.6,-1799.6 146.7,-3621.3 550.5,-5394.1 -1063.5,1006.8 -2484.7,1627.8 -3946.04,1724 -919.23,60.5 -1865.17,-87.1 -2677.96,-520.7 -812.79,-433.6 -1481.01,-1169.1 -1739.52,-2053.3 -107.18,-366.6 -92.75,-854.3 251.14,-1020.5 196.98,-95.2 431.22,-43.5 639.49,23.5 698.02,224.8 1345.34,605.5 1880.98,1106.3 -177.41,-231.5 -358.05,-469.2 -447.25,-746.9 l -1.46,-5 c -204.62,-54.9 -405.43,-121.8 -599.76,-208.5 -152.09,-67.8 -303.83,-151.1 -404.9,-283.5 -101.09,-132.3 -139.57,-324.6 -53.48,-467.2 36.2,-60 97.88,-102.4 165.16,-122.5 -322.89,-101.1 -618.2,-290.7 -841.52,-545.1 -73.05,-83.2 -140.54,-205.7 -78.74,-297.6 49.7,-73.9 154.28,-81 243.19,-76.1 289.31,16.2 575.63,81.6 843.79,191.3 -380.87,-187.5 -690.82,-517.7 -848.85,-912.1 -78.94,-197 -111.95,-446.2 32.69,-601.5 98.79,-106 258.81,-137.4 401.59,-112.4 142.78,24.9 272.09,98.3 394.33,176.2 713.26,454.3 1286.23,1093.3 1849.55,1724.1 119.99,-253.5 295.57,-470.3 507.42,-647.7 -10.7,-91.8 -20.59,-183.6 -29.1,-275.3 -57.31,-617.7 -65.86,-1239.7 -46.95,-1859.5 11.72,-384 34.77,-767.7 67.67,-1150.6 -18.6,3.1 -37.31,6 -55.78,9.2 -637.02,110.4 -1248.95,342.5 -1798.81,682.4 -17.14,10.6 -33.92,11.8 -48.38,6.9 -20.53,-3 -38.39,-16.6 -43.23,-44.2 -63.02,-359.5 -142,-715.9 -205.03,-1075.4 -13.76,-78.5 106.42,-112.2 120.27,-33.1 44.36,253 96.49,504.5 145.53,756.6 39.49,-347 56.73,-696.3 52.02,-1045.7 -1.09,-80.2 123.64,-80.3 124.73,0 5.64,418.3 -21.11,835.8 -77.77,1250.1 476.31,-275.4 996.11,-475.6 1535.01,-587 86.3,-17.8 174.09,-33.9 262.7,-48.4 21.88,-237.8 47.5,-475.3 77.01,-712.3 78.23,-628.4 181.52,-1254.2 320.89,-1872 116.88,-518.2 256.66,-1034.7 452.5,-1529.1 21.08,-53.3 42.97,-106.2 65.47,-158.8 11.8,-27.8 34.5,-36 56.4,-31.6 9.6,-2 20.4,-1.3 32.4,3.6 348.5,143.2 748.4,121.6 1076.8,-64.5 70,-39.7 132.9,68.1 63,107.7 -279.3,158.3 -611.5,210.9 -924.6,150.5 180.5,168.1 415.3,279.4 659.8,308.2 33.7,3.9 61.9,25.8 62.3,62.3 0.3,30.7 -28.9,66.3 -62.3,62.4 -346,-40.6 -659.3,-215.3 -876.3,-486.3 -188.97,454.5 -324.34,932.1 -438.98,1410 -144.51,602.5 -252.71,1213.9 -335.5,1827.8 -40.48,300.2 -74.46,601.4 -102.39,903.1 438.79,-61 895.27,-68.4 1318.87,40.2 265,68 514.5,191 716.4,377.1 194.5,179.1 338.8,406.6 438.6,650.2 234.1,571.2 195.2,1211.3 95.6,1807.6 -10.7,64 -23.3,127.7 -35.8,191.4 572.4,206.8 1100,557.4 1558,964.2 262.5,233.3 510.2,489.6 686,793.6 38.2,66.1 72.5,134.8 102.8,205.2 79.4,38.1 154.7,84.8 222.8,140.9 347.5,286.1 493.8,752.9 535.2,1201.2 175.2,1898.9 -1044.3,3816.1 -855.7,5698.8 113,-85.8 280.1,-165.5 505.9,-156.3 35.7,-41.7 88.6,-68.2 141.4,-84.4 183.5,-56.2 394.3,-40.5 557.9,-153.9 162.2,-112.5 152.8,-309.3 131.9,-483.7 -20.6,-172.1 -69.9,-321.2 -161.8,-468.8 -108.2,-173.9 -252.9,-320.8 -387.6,-473.8 -32.1,-36.4 -18.2,-88.3 27.5,-104.2 392.8,-136.4 749.5,190.5 951,492.4 204.3,306.3 307.4,681.7 291,1049.2"
         style="fill:#e86584;fill-opacity:1;fill-rule:nonzero;stroke:none"
         transform="matrix(0.13333333,0,0,-0.13333333,0,2829.3333)" />
      <path
         id="path3"
         d="m 16086.6,17511.3 c -15.9,359.1 -148.6,707.1 -366.4,992.1 -108.7,142.2 -236.1,267.5 -380.5,373.3 -108.7,79.6 -248.8,176 -391.2,188.8 -40.6,3.7 -81.4,0.9 -121.8,-11.4 -44,-13.5 -80.8,-35.9 -111.7,-64 -161.4,181.9 -366.5,266.1 -531.5,195.3 -234.6,-100.7 -298.8,-476 -143.3,-838.2 103.6,-241.2 278.4,-415.1 452.9,-475.1 -2.7,-22.6 -0.8,-46.5 6.8,-71.1 7.4,-24.1 20,-44.6 35.4,-62.5 35.7,-41.6 88.6,-68.2 141.4,-84.4 183.5,-56.2 394.3,-40.5 557.9,-153.9 162.2,-112.5 152.8,-309.3 131.9,-483.7 -20.6,-172.1 -69.9,-321.2 -161.8,-468.8 -108.2,-173.9 -252.9,-320.8 -387.6,-473.8 -32.1,-36.4 -18.2,-88.3 27.5,-104.2 392.8,-136.4 749.5,190.5 951,492.4 204.3,306.3 307.4,681.7 291,1049.2"
         style="fill:#fabda5;fill-opacity:1;fill-rule:nonzero;stroke:none"
         transform="matrix(0.13333333,0,0,-0.13333333,0,2829.3333)" />
      <path
         id="path4"
         d="m 11674.3,7137.5 c -145.6,-502.3 -482.6,-929.7 -985.4,-1105.5 -457.4,-159.8 -973.31,-148.2 -1453.82,-79.5 -26.91,310.9 -47.3,622.4 -60.52,934.1 -26.35,620.5 -25.9,1243.4 19.13,1863.1 10.14,139.5 22.57,279.1 37.76,418.6 -39.09,28.5 -77.24,58.2 -114.2,89.1 -10.7,-91.8 -20.59,-183.6 -29.1,-275.3 -57.31,-617.7 -65.86,-1239.7 -46.95,-1859.5 11.72,-384 34.77,-767.7 67.67,-1150.6 -18.6,3.1 -37.31,6 -55.78,9.2 -637.02,110.4 -1248.95,342.5 -1798.81,682.4 -17.14,10.6 -33.92,11.8 -48.38,6.9 -20.53,-3 -38.39,-16.6 -43.23,-44.2 -63.02,-359.5 -142,-715.9 -205.03,-1075.4 -13.76,-78.5 106.42,-112.2 120.27,-33.1 44.36,253 96.49,504.5 145.53,756.6 39.49,-347 56.73,-696.3 52.02,-1045.7 -1.09,-80.2 123.64,-80.3 124.73,0 5.64,418.3 -21.11,835.8 -77.77,1250.1 476.31,-275.4 996.11,-475.6 1535.01,-587 86.3,-17.8 174.09,-33.9 262.7,-48.4 21.88,-237.8 47.5,-475.3 77.01,-712.3 78.23,-628.4 181.52,-1254.2 320.89,-1872 116.88,-518.2 256.66,-1034.7 452.5,-1529.1 21.08,-53.3 42.97,-106.2 65.47,-158.8 11.8,-27.8 34.5,-36 56.4,-31.6 9.6,-2 20.4,-1.3 32.4,3.6 348.5,143.2 748.4,121.6 1076.8,-64.5 70,-39.7 132.9,68.1 63,107.7 -279.3,158.3 -611.5,210.9 -924.6,150.5 180.5,168.1 415.3,279.4 659.8,308.2 33.7,3.9 61.9,25.8 62.3,62.3 0.3,30.7 -28.9,66.3 -62.3,62.4 -346,-40.6 -659.3,-215.3 -876.3,-486.3 -188.97,454.5 -324.34,932.1 -438.98,1410 -144.51,602.5 -252.71,1213.9 -335.5,1827.8 -40.48,300.2 -74.46,601.4 -102.39,903.1 438.79,-61 895.27,-68.4 1318.87,40.2 265,68 514.5,191 716.4,377.1 194.5,179.1 338.8,406.6 438.6,650.2 234.1,571.2 195.2,1211.3 95.6,1807.6 -10.7,64 -23.3,127.7 -35.8,191.4 -39.1,-14.1 -78.4,-27.4 -117.9,-40.1 111.4,-559.5 172.4,-1159.7 11.9,-1713.3"
         style="fill:#4d1323;fill-opacity:1;fill-rule:nonzero;stroke:none"
         transform="matrix(0.13333333,0,0,-0.13333333,0,2829.3333)" />
      <path
         id="path5"
         d="m 9551.48,8972.6 c -97.68,108.6 -165.57,253.1 -212.43,393.6 -224.13,672.2 -167.64,1433.2 153.3,2064.9 -209.67,-337 -431.44,-686.3 -770.32,-892.9 -338.88,-206.6 -831.17,-220 -1092.39,78.8 -190.85,218.4 -210.26,546.3 -122.86,823 -204.62,-54.9 -405.43,-121.8 -599.76,-208.5 -152.09,-67.8 -303.83,-151.1 -404.9,-283.5 -101.09,-132.3 -139.57,-324.6 -53.48,-467.2 36.2,-60 97.88,-102.4 165.16,-122.5 -322.89,-101.1 -618.2,-290.7 -841.52,-545.1 -73.05,-83.2 -140.54,-205.7 -78.74,-297.6 49.7,-73.9 154.28,-81 243.19,-76.1 289.31,16.2 575.63,81.6 843.79,191.3 -380.87,-187.5 -690.82,-517.7 -848.85,-912.1 -78.94,-197 -111.95,-446.2 32.69,-601.5 98.79,-106 258.81,-137.4 401.59,-112.4 142.78,24.9 272.09,98.3 394.33,176.2 713.26,454.3 1286.23,1093.3 1849.55,1724.1 119.99,-253.5 295.57,-470.3 507.42,-647.7 36.96,-30.9 75.11,-60.6 114.2,-89.1 100.62,-73.4 207.75,-138.9 320.03,-195.7"
         style="fill:#fabda5;fill-opacity:1;fill-rule:nonzero;stroke:none"
         transform="matrix(0.13333333,0,0,-0.13333333,0,2829.3333)" />
      <path
         id="path6"
         d="m 13238.7,10806.7 c -368.9,136.2 -654.2,477.6 -722.7,864.8 39.8,-280.4 78.2,-575.3 -23.7,-839.6 -101.9,-264.2 -396.1,-477.2 -664.5,-386.8 -321.1,108.3 -385.4,526.7 -394.5,865.4 -75.6,-750.5 -365.5,-1478.2 -826.7,-2075.1 -156.6,-202.6 -378,-403.1 -617.03,-435.1 294.73,-85.8 605.93,-120.8 909.63,-100.2 261.2,17.8 516,71 763.2,150.7 39.5,12.7 78.8,26 117.9,40.1 572.4,206.8 1100,557.4 1558,964.2 262.5,233.3 510.2,489.6 686,793.6 38.2,66.1 72.5,134.8 102.8,205.2 -274.5,-131.2 -602.3,-152.7 -888.4,-47.2"
         style="fill:#fabda5;fill-opacity:1;fill-rule:nonzero;stroke:none"
         transform="matrix(0.13333333,0,0,-0.13333333,0,2829.3333)" />
      <path
         id="path7"
         d="m 15204.7,16547.7 c -108.2,-173.9 -252.9,-320.8 -387.6,-473.8 -32.1,-36.4 -18.2,-88.3 27.5,-104.2 392.8,-136.4 749.5,190.5 951,492.4 204.3,306.3 307.4,681.7 291,1049.2 -15.9,359.1 -148.6,707.1 -366.4,992.1 -108.7,142.2 -236.1,267.5 -380.6,373.3 -108.6,79.6 -248.7,176 -391.1,188.8 -40.6,3.7 -81.4,0.9 -121.8,-11.4 -44,-13.5 -80.8,-35.9 -111.7,-64 -103.7,-94.6 -137.8,-257.8 -126.7,-395.1 15.5,-191.3 166.1,-394 13.2,-550 -15.6,-15.9 -86.1,-89.4 -83.7,-105.8 -13.5,-20.4 -21.7,-43.1 -24.7,-67.1 -2.7,-22.6 -0.8,-46.5 6.8,-71.1 7.4,-24.1 20,-44.6 35.4,-62.5 35.7,-41.7 88.6,-68.2 141.4,-84.4 183.5,-56.2 394.3,-40.5 557.9,-153.9 162.2,-112.5 152.8,-309.3 131.9,-483.7 -20.6,-172.1 -69.9,-321.2 -161.8,-468.8"
         style="fill:#4d1323;fill-opacity:1;fill-rule:nonzero;stroke:none"
         transform="matrix(0.13333333,0,0,-0.13333333,0,2829.3333)" />
      <path
         id="path8"
         d="m 14385.1,18993 c -15.8,29.8 -57.2,38.9 -85.4,22.4 -30.1,-17.6 -38.1,-55.4 -22.3,-85.3 38.6,-73.2 66.2,-151 83,-232 8.2,-39.2 13.4,-78.7 15.5,-118.6 0.9,-15.7 1.4,-31.7 -0.5,-47.4 l -8.5,-28.2 c -4.7,-7.9 1,-2.9 -6.6,-7.6 8.9,5.5 -6.8,-0.6 -2.6,-0.2 -10.1,-1 -19,3.7 -29.4,9.8 -28.7,16.8 -51.8,44.8 -70,72.2 -39,58.6 -59.8,125.4 -60.3,195.4 -0.5,80.2 -125.2,80.4 -124.7,0 0.5,-79.1 20.4,-156.8 58.1,-226.4 37.4,-69.2 95.4,-138.4 171.1,-166.2 84.5,-31 166.5,19.6 189.8,103.1 21,75.3 5,163.1 -9.7,238 -18.6,94.6 -52.6,185.9 -97.5,271"
         style="fill:#4d1323;fill-opacity:1;fill-rule:nonzero;stroke:none"
         transform="matrix(0.13333333,0,0,-0.13333333,0,2829.3333)" />
      <path
         id="path9"
         d="m 11380,12539.9 c -44.7,168.3 -48.8,350.7 -18.2,521.9 12.4,69 75.9,365.8 206.4,274 98.3,-69.1 75.8,-272.3 66.8,-373.4 -12.1,-135.8 -48.1,-271.5 -102.6,-396.5 -27.1,-62.3 -59,-122.6 -95,-180.4 -24.2,50.2 -43.5,102.4 -57.4,154.4 z m -1321.3,276.3 c 28.1,152.7 77.6,301.5 149.2,439.3 66,127.2 151.9,272.2 268.8,359 49.4,36.7 111.2,60.8 172,38.9 92,-33.1 66.5,-127.6 32.6,-196.5 -64.1,-130.4 -150.8,-253 -245,-363.2 -114.2,-133.6 -245,-251.8 -388.4,-352.2 3.3,25 6.2,50 10.8,74.7 z m -1256.36,443.7 c 147.7,273.6 368.62,511.5 630.64,679 40.94,26.2 128.64,84.1 179.52,50.7 64.88,-42.5 -27.1,-154.7 -56.34,-189.9 -98.5,-118.7 -206.83,-229.8 -319.89,-334.6 -162.21,-150.3 -337.06,-285.8 -520.46,-408.9 21.59,70.9 51.87,139.5 86.53,203.7 z m 3555.46,-492.7 c -39.9,69.6 -147.8,6.8 -107.7,-63 151.4,-263.2 -7.6,-599.5 -309.8,-642.9 -185.9,-26.7 -332.5,68.2 -432.6,205.7 30.5,44.6 59.4,90.3 84.8,137.9 77.9,146 132.6,305.1 156.6,469 21.8,148.3 36.1,324.3 -29.9,463.8 -66.9,141.4 -234.4,181.8 -347.5,66.4 -121.8,-124.4 -144.4,-336 -152,-500.8 -9.5,-207.5 27.8,-445.2 134.7,-635.3 -98.7,-126.8 -219.1,-236.7 -357.4,-319.2 -228.4,-136.2 -585.8,-237 -793.6,-10.7 -101.5,110.5 -139.6,270.3 -157.9,415.2 -9.6,75.8 -13.2,152.7 -11.1,229.5 180.4,113.8 344.3,253.7 483.9,415.6 111.8,129.5 220.9,276.3 288.7,434.4 33.3,77.5 49.2,168.4 2.7,244.5 -37.8,61.8 -105,97 -175.4,106.1 -173.7,22.5 -300.8,-118.7 -395.3,-244.5 -109.9,-145.9 -193.2,-311.4 -249.13,-485.2 -40.11,-124.8 -68.04,-261.2 -79,-399.9 -49.64,-29.3 -100.21,-57 -152.25,-82.1 -128.22,-61.8 -263.94,-110 -402.81,-141.5 -141.33,-32 -303.37,-46.4 -438.87,16 -135.38,62.3 -212.89,199.5 -229.9,343.9 -3.84,32.6 -3.89,65.1 -2.1,97.4 246.51,156.7 479.13,334.5 690.66,537.7 65.32,62.7 128.44,127.7 189.1,195 58.74,65.1 124.82,132.1 162.81,212.1 32.54,68.6 45.37,148.9 0.35,215 -43.98,64.5 -120.52,82.8 -194.23,70 -83.13,-14.5 -155.44,-63.4 -223.25,-110.8 -74.45,-51.9 -145.75,-108.8 -212.74,-170.1 -137.48,-125.7 -257.62,-271.8 -355.06,-430.7 -78.72,-128.3 -145.71,-284.5 -170.96,-441.8 -287.39,-178.4 -592.96,-328.5 -906.15,-453.3 -138.72,-55.2 -279.2,-106 -420.97,-152.8 -139.5,-46.1 -282.96,-98.8 -428.93,-119.8 -131.58,-18.9 -290.26,-4.9 -354.49,130.5 -70.72,149.1 4.7,314 88.7,439.4 338.96,505.9 898.12,832.3 1451.32,1054.9 135.98,54.7 273.97,104.2 413.12,150.2 75.84,25.1 43.35,145.6 -33.16,120.3 -673.98,-222.9 -1361.37,-540.2 -1819.3,-1102.8 -113.73,-139.7 -229.32,-296.1 -249.69,-480.5 -17.88,-161.9 51.95,-331.9 205.1,-402.6 145.92,-67.3 316.1,-40.9 465.78,-0.7 174.27,46.9 346.28,105.8 515.77,167.5 367.12,133.7 726.71,297 1063.12,497.6 4.75,-144 53.38,-281.6 171.72,-391.1 259.51,-240 671.48,-131.7 961.15,-12.9 72.24,29.6 142.63,63.5 211.28,100.6 2,-178.3 34.7,-354.9 109.11,-509.7 164.4,-342 557.9,-373.5 876,-241.9 209.4,86.7 392.4,229 536.3,403.5 51.2,-63.2 112.6,-117.6 186.2,-158.6 295.9,-164.7 687.2,-15.6 792.6,307.1 49.7,151.7 30.9,320.4 -48.4,458.4"
         style="fill:#4d1323;fill-opacity:1;fill-rule:nonzero;stroke:none"
         transform="matrix(0.13333333,0,0,-0.13333333,0,2829.3333)" />
      <path
         id="path10"
         d="m 14086.8,12876.2 c 10.3,32.5 32.5,110 69.1,55.9 23.3,-34.3 25.7,-93.8 31.9,-133 8.4,-52.9 14.5,-106.2 18.8,-159.7 6.9,-86.7 8.5,-173.7 5.5,-260.6 -34.2,32.2 -64.2,69.1 -87.6,111 -43.6,77.8 -63.1,167 -60.2,255.9 1.4,44.5 9,88.1 22.5,130.5 z m -134.5,-276.1 c 31.2,-156 124.4,-286.1 249.6,-371.7 -7.3,-72.4 -18.1,-144.5 -33.5,-215.6 -18.5,-85 -49.1,-188.7 -135.8,-228.4 -89.2,-40.8 -178.8,34 -213.6,113 -47.8,108.1 -17.2,236.4 7.6,346.3 17.6,78.1 -102.6,111.5 -120.3,33.1 -30,-133.2 -59.2,-279.8 -8.3,-411.8 40.3,-104.8 130.9,-196.4 245,-213.8 282.5,-43.1 349.9,303.7 376.5,514.4 68.6,-28.1 142.5,-44.8 218.5,-47.2 80.3,-2.6 80.2,122.1 0,124.7 -71.9,2.3 -142,21.1 -205.6,52.5 8.5,118.3 8,237.3 -2.1,355.6 -6.1,72.3 -15.4,144.6 -28.1,216.1 -10.6,60.1 -24,123.8 -69.7,167.9 -93.2,89.9 -203.1,28.7 -246.3,-73.4 -48.2,-113.9 -58,-240.7 -33.9,-361.7"
         style="fill:#4d1323;fill-opacity:1;fill-rule:nonzero;stroke:none"
         transform="matrix(0.13333333,0,0,-0.13333333,0,2829.3333)" />
    </g>
  </g>
</svg>
